<svg width="11" height="16" viewBox="0 0 11 16" fill="none" xmlns="http://www.w3.org/2000/svg">
<path d="M5.49551 9C5.15887 9.0022 4.83277 9.10166 4.56923 9.28251C4.3057 9.46336 4.11989 9.71519 4.04147 9.99783C3.96304 10.2805 3.99649 10.5776 4.1365 10.842C4.27651 11.1063 4.51501 11.3225 4.81396 11.4561V13H6.06451V11.5047C6.38736 11.3905 6.6543 11.1831 6.81977 10.9179C6.98523 10.6527 7.03898 10.3462 6.97183 10.0506C6.90468 9.75498 6.7208 9.48867 6.45156 9.29708C6.18233 9.10548 5.84442 9.00049 5.49551 9Z" fill="#999999"/>
<path d="M9.5 6.39191V4.22756C9.52147 3.13117 9.11266 2.07082 8.36302 1.27853C7.61338 0.486238 6.58395 0.0265314 5.5 0C4.41605 0.0265314 3.38662 0.486238 2.63698 1.27853C1.88734 2.07082 1.47853 3.13117 1.5 4.22756V6.39191H0V14.9886C0 15.2569 0.105357 15.5141 0.292893 15.7038C0.48043 15.8934 0.734784 16 1 16H10C10.2652 16 10.5196 15.8934 10.7071 15.7038C10.8946 15.5141 11 15.2569 11 14.9886V6.39191H9.5ZM2.5 4.22756C2.47844 3.39936 2.78188 2.5962 3.34401 1.99357C3.90613 1.39093 4.68125 1.03782 5.5 1.01138C6.31875 1.03782 7.09387 1.39093 7.65599 1.99357C8.21812 2.5962 8.52156 3.39936 8.5 4.22756V6.39191H2.5V4.22756ZM1 14.9886V7.40329H10V14.9886H1Z" fill="#999999"/>
</svg>
