<svg width="14" height="16" viewBox="0 0 14 16" fill="none" xmlns="http://www.w3.org/2000/svg">
<path d="M7 6.44444C7.3677 6.44444 7.7318 6.37403 8.07151 6.23723C8.41123 6.10042 8.71989 5.89991 8.9799 5.64712C9.2399 5.39434 9.44615 5.09425 9.58686 4.76397C9.72758 4.4337 9.8 4.07971 9.8 3.72222C9.8 3.36473 9.72758 3.01075 9.58686 2.68047C9.44615 2.3502 9.2399 2.0501 8.9799 1.79732C8.71989 1.54454 8.41123 1.34402 8.07151 1.20722C7.7318 1.07041 7.3677 1 7 1C6.25739 1 5.5452 1.2868 5.0201 1.79732C4.495 2.30784 4.2 3.00024 4.2 3.72222C4.2 4.4442 4.495 5.13661 5.0201 5.64712C5.5452 6.15764 6.25739 6.44444 7 6.44444ZM1 14.5333V15H13V14.5333C13 12.7911 13 11.92 12.6512 11.2542C12.3444 10.6689 11.8549 10.1929 11.2528 9.89467C10.568 9.55556 9.672 9.55556 7.88 9.55556H6.12C4.328 9.55556 3.432 9.55556 2.7472 9.89467C2.14511 10.1929 1.65559 10.6689 1.3488 11.2542C1 11.92 1 12.7911 1 14.5333Z" stroke="#999999" stroke-linecap="round" stroke-linejoin="round"/>
</svg>
