<svg width="16" height="16" viewBox="0 0 16 16" fill="none" xmlns="http://www.w3.org/2000/svg">
<path d="M15.7372 14.2492L12.7159 11.2839C13.6907 10.0614 14.2196 8.55182 14.2176 6.99775C14.2176 5.61372 13.8007 4.26078 13.0196 3.11001C12.2385 1.95924 11.1282 1.06232 9.82925 0.532675C8.53028 0.00303199 7.10094 -0.135547 5.72196 0.134463C4.34299 0.404472 3.07631 1.07094 2.08213 2.0496C1.08794 3.02825 0.410893 4.27513 0.136597 5.63256C-0.137698 6.98999 0.00308012 8.397 0.54113 9.67567C1.07918 10.9543 1.99033 12.0472 3.15937 12.8162C4.32841 13.5851 5.70283 13.9955 7.10882 13.9955C8.68756 13.9974 10.2211 13.4768 11.463 12.5172L14.4753 15.4913C14.5579 15.5732 14.6562 15.6383 14.7645 15.6827C14.8728 15.7271 14.9889 15.75 15.1062 15.75C15.2236 15.75 15.3397 15.7271 15.448 15.6827C15.5563 15.6383 15.6545 15.5732 15.7372 15.4913C15.8204 15.4099 15.8865 15.3132 15.9317 15.2066C15.9768 15.1 16 14.9857 16 14.8702C16 14.7547 15.9768 14.6404 15.9317 14.5338C15.8865 14.4272 15.8204 14.3305 15.7372 14.2492ZM1.77721 6.99775C1.77721 5.95973 2.0899 4.94502 2.67575 4.08194C3.26159 3.21886 4.09428 2.54618 5.0685 2.14894C6.04273 1.75171 7.11474 1.64778 8.14897 1.85028C9.1832 2.05279 10.1332 2.55264 10.8788 3.28663C11.6245 4.02062 12.1323 4.95578 12.338 5.97385C12.5437 6.99193 12.4381 8.04719 12.0346 9.00619C11.6311 9.96519 10.9477 10.7849 10.0709 11.3616C9.19413 11.9382 8.16332 12.2461 7.10882 12.2461C5.69479 12.2461 4.33867 11.6931 3.3388 10.7089C2.33893 9.72461 1.77721 8.38969 1.77721 6.99775Z" fill="#333333"/>
</svg>
